<svg width="36" height="45" viewBox="0 0 36 45" fill="none" xmlns="http://www.w3.org/2000/svg">
<circle cx="18.5" cy="17.5" r="16.5" stroke="#56CCF2" stroke-width="2"/>
<path d="M3.30176 44H4.24219L2.77148 39.7725H1.73145L0.263672 44H1.17188L1.49414 42.9746H2.97949L3.30176 44ZM2.22656 40.5811H2.24707L2.78906 42.3125H1.68457L2.22656 40.5811ZM6.33984 44.0703C7.37695 44.0703 8.10059 43.4756 8.2002 42.5322H7.33887C7.24512 43.0332 6.86719 43.3408 6.34277 43.3408C5.66602 43.3408 5.24121 42.7842 5.24121 41.8818C5.24121 40.9912 5.67188 40.4316 6.33984 40.4316C6.85547 40.4316 7.25391 40.7715 7.33594 41.29H8.19727C8.12988 40.3438 7.35645 39.6992 6.33984 39.6992C5.11523 39.6992 4.33887 40.5225 4.33887 41.8848C4.33887 43.25 5.10938 44.0703 6.33984 44.0703ZM10.6172 44.0703C11.6543 44.0703 12.3779 43.4756 12.4775 42.5322H11.6162C11.5225 43.0332 11.1445 43.3408 10.6201 43.3408C9.94336 43.3408 9.51855 42.7842 9.51855 41.8818C9.51855 40.9912 9.94922 40.4316 10.6172 40.4316C11.1328 40.4316 11.5312 40.7715 11.6133 41.29H12.4746C12.4072 40.3438 11.6338 39.6992 10.6172 39.6992C9.39258 39.6992 8.61621 40.5225 8.61621 41.8848C8.61621 43.25 9.38672 44.0703 10.6172 44.0703ZM15.8262 43.2676H13.9102V42.2012H15.7178V41.5215H13.9102V40.502H15.8262V39.7725H13.0254V44H15.8262V43.2676ZM16.3037 42.793C16.3301 43.5898 17.001 44.0703 18.0088 44.0703C19.0664 44.0703 19.7139 43.5488 19.7139 42.7227C19.7139 42.0811 19.3242 41.7207 18.4307 41.542L17.9824 41.4512C17.4844 41.3516 17.2793 41.1904 17.2793 40.9297C17.2793 40.6191 17.5723 40.4141 18.0088 40.4141C18.4541 40.4141 18.7676 40.6309 18.7969 40.9912H19.6318C19.6172 40.2148 18.9961 39.6992 18.0088 39.6992C17.0684 39.6992 16.3945 40.2119 16.3945 40.9854C16.3945 41.6152 16.8076 42.0195 17.6514 42.1865L18.0967 42.2744C18.627 42.3828 18.8262 42.541 18.8262 42.8193C18.8262 43.1299 18.5039 43.3584 18.0322 43.3584C17.5518 43.3584 17.1943 43.1475 17.1387 42.793H16.3037ZM20.0947 42.793C20.1211 43.5898 20.792 44.0703 21.7998 44.0703C22.8574 44.0703 23.5049 43.5488 23.5049 42.7227C23.5049 42.0811 23.1152 41.7207 22.2217 41.542L21.7734 41.4512C21.2754 41.3516 21.0703 41.1904 21.0703 40.9297C21.0703 40.6191 21.3633 40.4141 21.7998 40.4141C22.2451 40.4141 22.5586 40.6309 22.5879 40.9912H23.4229C23.4082 40.2148 22.7871 39.6992 21.7998 39.6992C20.8594 39.6992 20.1855 40.2119 20.1855 40.9854C20.1855 41.6152 20.5986 42.0195 21.4424 42.1865L21.8877 42.2744C22.418 42.3828 22.6172 42.541 22.6172 42.8193C22.6172 43.1299 22.2949 43.3584 21.8232 43.3584C21.3428 43.3584 20.9854 43.1475 20.9297 42.793H20.0947ZM24.9316 44V39.7725H24.0469V44H24.9316ZM27.5068 44C28.4092 44 28.9688 43.5342 28.9688 42.79C28.9688 42.2305 28.5469 41.8115 27.9727 41.7676V41.7441C28.4209 41.6768 28.7666 41.29 28.7666 40.8271C28.7666 40.1797 28.2686 39.7725 27.4746 39.7725H25.6348V44H27.5068ZM26.5195 40.4316H27.2461C27.6592 40.4316 27.8965 40.625 27.8965 40.9648C27.8965 41.3223 27.627 41.5303 27.1553 41.5303H26.5195V40.4316ZM26.5195 43.3408V42.1133H27.2607C27.7822 42.1133 28.0664 42.3242 28.0664 42.7197C28.0664 43.124 27.791 43.3408 27.2812 43.3408H26.5195ZM32.2061 43.2676H30.3574V39.7725H29.4727V44H32.2061V43.2676ZM35.5312 43.2676H33.6152V42.2012H35.4229V41.5215H33.6152V40.502H35.5312V39.7725H32.7305V44H35.5312V43.2676Z" fill="#1F4E8E"/>
<g clip-path="url(#clip0)">
<path d="M28.41 22.3119L28.938 23.3756C29.0838 23.6693 28.9638 24.0256 28.6701 24.1714L26.2407 25.3918C25.6452 25.6874 24.9213 25.4361 24.638 24.8331L22.3084 19.875H17.125C16.534 19.875 16.033 19.4404 15.9494 18.8554C14.6918 10.0524 14.7641 10.5993 14.75 10.375C14.75 9.02578 15.8751 7.93932 17.2383 8.00263C18.4729 8.05997 19.4666 9.07528 19.4991 10.3109C19.5314 11.533 18.64 12.5531 17.4727 12.7244L17.646 13.9375H22.4688C22.7967 13.9375 23.0625 14.2034 23.0625 14.5313V15.7188C23.0625 16.0467 22.7967 16.3125 22.4688 16.3125H17.9853L18.1549 17.5H23.0625C23.288 17.5 23.5088 17.5642 23.6991 17.6851C23.8894 17.806 24.0414 17.9785 24.1373 18.1826L26.2716 22.725L27.6142 22.0441C27.9079 21.8983 28.2642 22.0182 28.41 22.3119ZM21.5543 21.0625H20.6449C20.3559 23.074 18.6214 24.625 16.5312 24.625C14.2395 24.625 12.375 22.7605 12.375 20.4687C12.375 18.9285 13.2172 17.5813 14.4651 16.8633C14.3274 15.8998 14.2112 15.0873 14.1131 14.4018C11.7054 15.3649 10 17.7213 10 20.4687C10 24.0701 12.9299 27 16.5312 27C19.1983 27 21.4967 25.3929 22.5099 23.0964L21.5543 21.0625Z" fill="#56CCF2"/>
</g>
<defs>
<clipPath id="clip0">
<rect width="19" height="19" fill="white" transform="translate(10 8)"/>
</clipPath>
</defs>
</svg>
