<svg width="35" height="44" viewBox="0 0 35 44" fill="none" xmlns="http://www.w3.org/2000/svg">
<circle cx="17.5" cy="17.5" r="16.5" stroke="#6FCF97" stroke-width="2"/>
<path d="M13.3076 44C14.21 44 14.7695 43.5342 14.7695 42.79C14.7695 42.2305 14.3477 41.8115 13.7734 41.7676V41.7441C14.2217 41.6768 14.5674 41.29 14.5674 40.8271C14.5674 40.1797 14.0693 39.7725 13.2754 39.7725H11.4355V44H13.3076ZM12.3203 40.4316H13.0469C13.46 40.4316 13.6973 40.625 13.6973 40.9648C13.6973 41.3223 13.4277 41.5303 12.9561 41.5303H12.3203V40.4316ZM12.3203 43.3408V42.1133H13.0615C13.583 42.1133 13.8672 42.3242 13.8672 42.7197C13.8672 43.124 13.5918 43.3408 13.082 43.3408H12.3203ZM16.1582 44V39.7725H15.2734V44H16.1582ZM17.7461 44V42.708L18.1416 42.2334L19.3955 44H20.4531L18.7803 41.6475L20.3447 39.7725H19.3604L17.7725 41.7002H17.7461V39.7725H16.8613V44H17.7461ZM23.6289 43.2676H21.7129V42.2012H23.5205V41.5215H21.7129V40.502H23.6289V39.7725H20.8281V44H23.6289V43.2676Z" fill="#104D2A"/>
<path d="M11.9844 26.1094C12.8342 26.1094 13.665 25.8574 14.3716 25.3852C15.0782 24.9131 15.6289 24.242 15.9542 23.4568C16.2794 22.6717 16.3645 21.8077 16.1987 20.9742C16.0329 20.1407 15.6237 19.3751 15.0227 18.7742C14.4218 18.1732 13.6562 17.764 12.8227 17.5982C11.9891 17.4324 11.1252 17.5175 10.34 17.8427C9.55488 18.1679 8.8838 18.7187 8.41165 19.4253C7.93951 20.1319 7.6875 20.9627 7.6875 21.8125C7.68879 22.9517 8.1419 24.0439 8.94744 24.8494C9.75299 25.655 10.8452 26.1081 11.9844 26.1094ZM11.9844 18.8906C12.5623 18.8906 13.1272 19.062 13.6077 19.3831C14.0882 19.7041 14.4627 20.1604 14.6838 20.6943C14.905 21.2283 14.9628 21.8157 14.8501 22.3825C14.7374 22.9493 14.4591 23.4699 14.0505 23.8786C13.6418 24.2872 13.1212 24.5655 12.5544 24.6782C11.9876 24.791 11.4001 24.7331 10.8662 24.512C10.3323 24.2908 9.87598 23.9163 9.55492 23.4358C9.23387 22.9553 9.0625 22.3904 9.0625 21.8125C9.06338 21.0378 9.3715 20.2952 9.91926 19.7474C10.467 19.1996 11.2097 18.8915 11.9844 18.8906Z" fill="#6FCF97"/>
<path d="M19.7188 21.8125C19.7188 22.6623 19.9708 23.4931 20.4429 24.1997C20.9151 24.9063 21.5861 25.4571 22.3713 25.7823C23.1564 26.1075 24.0204 26.1926 24.8539 26.0268C25.6874 25.861 26.453 25.4518 27.054 24.8509C27.6549 24.2499 28.0641 23.4843 28.2299 22.6508C28.3957 21.8173 28.3106 20.9533 27.9854 20.1682C27.6602 19.383 27.1095 18.7119 26.4028 18.2398C25.6962 17.7676 24.8655 17.5156 24.0156 17.5156C22.8764 17.5169 21.7842 17.97 20.9787 18.7756C20.1732 19.5811 19.72 20.6733 19.7188 21.8125ZM24.0156 18.8906C24.5935 18.8906 25.1584 19.062 25.6389 19.383C26.1194 19.7041 26.4939 20.1604 26.7151 20.6943C26.9362 21.2283 26.9941 21.8157 26.8814 22.3825C26.7686 22.9493 26.4903 23.4699 26.0817 23.8786C25.6731 24.2872 25.1524 24.5655 24.5857 24.6782C24.0189 24.791 23.4314 24.7331 22.8975 24.512C22.3636 24.2908 21.9072 23.9163 21.5862 23.4358C21.2651 22.9553 21.0938 22.3904 21.0938 21.8125C21.0946 21.0378 21.4027 20.2952 21.9505 19.7474C22.4983 19.1996 23.241 18.8915 24.0156 18.8906Z" fill="#6FCF97"/>
<path d="M20.6602 11.5076C21.4691 11.5076 22.1249 10.8518 22.1249 10.0428C22.1249 9.2339 21.4691 8.57812 20.6602 8.57812C19.8512 8.57812 19.1954 9.2339 19.1954 10.0428C19.1954 10.8518 19.8512 11.5076 20.6602 11.5076Z" fill="#6FCF97"/>
<path d="M15.205 17.4425L17.3125 19.5218V23.3593H18.6875V19.3781C18.6871 19.2415 18.6598 19.1064 18.6071 18.9804C18.5544 18.8545 18.4774 18.7401 18.3805 18.644L16.1773 16.4703L19.0327 13.6149L21.532 16.1737C21.6283 16.2718 21.743 16.3497 21.8697 16.4031C21.9963 16.4564 22.1323 16.484 22.2697 16.4843H23.5V15.1093H22.4145L18.4404 11.0407L18.42 11.0606L18.0591 10.6997L13.2466 15.5122L15.1911 17.4567L15.205 17.4425Z" fill="#6FCF97"/>
</svg>
