<svg width="35" height="45" viewBox="0 0 35 45" fill="none" xmlns="http://www.w3.org/2000/svg">
<circle cx="17.5" cy="17.5" r="17.5" fill="#56CCF2"/>
<path d="M8.61426 44V41.2314H8.64062L10.6182 44H11.3506V39.7725H10.5039V42.5264H10.4805L8.50586 39.7725H7.76758V44H8.61426ZM13.9639 39.6992C12.71 39.6992 11.9248 40.54 11.9248 41.8877C11.9248 43.2324 12.71 44.0703 13.9639 44.0703C15.2148 44.0703 16.0029 43.2324 16.0029 41.8877C16.0029 40.54 15.2148 39.6992 13.9639 39.6992ZM13.9639 40.4375C14.6553 40.4375 15.0977 41 15.0977 41.8877C15.0977 42.7725 14.6553 43.332 13.9639 43.332C13.2695 43.332 12.8271 42.7725 12.8271 41.8877C12.8271 41 13.2725 40.4375 13.9639 40.4375ZM18.6484 44V42.3359H20.3682V41.6357H18.6484V40.502H20.5322V39.7725H17.7637V44H18.6484ZM23.8574 43.2676H21.9414V42.2012H23.749V41.5215H21.9414V40.502H23.8574V39.7725H21.0566V44H23.8574V43.2676ZM27.2969 43.2676H25.3809V42.2012H27.1885V41.5215H25.3809V40.502H27.2969V39.7725H24.4961V44H27.2969V43.2676Z" fill="#1F4E8E"/>
<path d="M6.5625 11.6406C6.5625 10.5625 7.4375 9.6875 8.51562 9.6875H23.3594C24.4375 9.6875 25.3125 10.5625 25.3125 11.6406V20.2344C25.3125 21.3125 24.4375 22.1875 23.3594 22.1875H8.51562C7.4375 22.1875 6.5625 21.3125 6.5625 20.2344V11.6406ZM11.25 12.0312V11.25H9.6875V12.0312C9.6875 12.2385 9.60519 12.4372 9.45868 12.5837C9.31216 12.7302 9.11345 12.8125 8.90625 12.8125H8.125V14.375H8.90625C9.52785 14.375 10.124 14.1281 10.5635 13.6885C11.0031 13.249 11.25 12.6529 11.25 12.0312ZM19.0625 15.9375C19.0625 15.1087 18.7333 14.3138 18.1472 13.7278C17.5612 13.1417 16.7663 12.8125 15.9375 12.8125C15.1087 12.8125 14.3138 13.1417 13.7278 13.7278C13.1417 14.3138 12.8125 15.1087 12.8125 15.9375C12.8125 16.7663 13.1417 17.5612 13.7278 18.1472C14.3138 18.7333 15.1087 19.0625 15.9375 19.0625C16.7663 19.0625 17.5612 18.7333 18.1472 18.1472C18.7333 17.5612 19.0625 16.7663 19.0625 15.9375ZM22.1875 11.25H20.625V12.0312C20.625 12.6529 20.8719 13.249 21.3115 13.6885C21.751 14.1281 22.3471 14.375 22.9688 14.375H23.75V12.8125H22.9688C22.7615 12.8125 22.5628 12.7302 22.4163 12.5837C22.2698 12.4372 22.1875 12.2385 22.1875 12.0312V11.25ZM11.25 19.8438C11.25 19.2221 11.0031 18.626 10.5635 18.1865C10.124 17.7469 9.52785 17.5 8.90625 17.5H8.125V19.0625H8.90625C9.11345 19.0625 9.31216 19.1448 9.45868 19.2913C9.60519 19.4378 9.6875 19.6365 9.6875 19.8438V20.625H11.25V19.8438ZM22.1875 20.625V19.8438C22.1875 19.6365 22.2698 19.4378 22.4163 19.2913C22.5628 19.1448 22.7615 19.0625 22.9688 19.0625H23.75V17.5H22.9688C22.3471 17.5 21.751 17.7469 21.3115 18.1865C20.8719 18.626 20.625 19.2221 20.625 19.8438V20.625H22.1875Z" fill="white"/>
<path d="M12.0313 25.3125C11.5363 25.3127 11.054 25.1562 10.6534 24.8654C10.2529 24.5746 9.95469 24.1644 9.80157 23.6937C10.0188 23.7312 10.2406 23.75 10.4688 23.75H23.3594C24.2918 23.75 25.186 23.3796 25.8453 22.7203C26.5046 22.061 26.875 21.1668 26.875 20.2344V12.9453C27.3322 13.1069 27.7279 13.4064 28.0078 13.8024C28.2876 14.1983 28.4378 14.6714 28.4375 15.1562V20.2344C28.4375 20.9012 28.3062 21.5616 28.051 22.1777C27.7958 22.7938 27.4217 23.3536 26.9502 23.8252C26.4786 24.2967 25.9188 24.6708 25.3027 24.926C24.6866 25.1812 24.0263 25.3125 23.3594 25.3125H12.0313Z" fill="white"/>
</svg>
