<svg width="35" height="45" viewBox="0 0 35 45" fill="none" xmlns="http://www.w3.org/2000/svg">
<circle cx="17.5" cy="17.5" r="16.5" stroke="#56CCF2" stroke-width="2"/>
<path d="M8.61426 44V41.2314H8.64062L10.6182 44H11.3506V39.7725H10.5039V42.5264H10.4805L8.50586 39.7725H7.76758V44H8.61426ZM13.9639 39.6992C12.71 39.6992 11.9248 40.54 11.9248 41.8877C11.9248 43.2324 12.71 44.0703 13.9639 44.0703C15.2148 44.0703 16.0029 43.2324 16.0029 41.8877C16.0029 40.54 15.2148 39.6992 13.9639 39.6992ZM13.9639 40.4375C14.6553 40.4375 15.0977 41 15.0977 41.8877C15.0977 42.7725 14.6553 43.332 13.9639 43.332C13.2695 43.332 12.8271 42.7725 12.8271 41.8877C12.8271 41 13.2725 40.4375 13.9639 40.4375ZM18.6484 44V42.3359H20.3682V41.6357H18.6484V40.502H20.5322V39.7725H17.7637V44H18.6484ZM23.8574 43.2676H21.9414V42.2012H23.749V41.5215H21.9414V40.502H23.8574V39.7725H21.0566V44H23.8574V43.2676ZM27.2969 43.2676H25.3809V42.2012H27.1885V41.5215H25.3809V40.502H27.2969V39.7725H24.4961V44H27.2969V43.2676Z" fill="#1F4E8E"/>
<path d="M11.75 11.25V10.75H11.25H9.6875H9.1875V11.25V12.0312C9.1875 12.1058 9.15787 12.1774 9.10512 12.2301C9.05238 12.2829 8.98084 12.3125 8.90625 12.3125H8.125H7.625V12.8125V14.375V14.875H8.125H8.90625C9.66046 14.875 10.3838 14.5754 10.9171 14.0421C11.4504 13.5088 11.75 12.7855 11.75 12.0312V11.25ZM22.6875 11.25V10.75H22.1875H20.625H20.125V11.25V12.0312C20.125 12.7855 20.4246 13.5088 20.9579 14.0421C21.4912 14.5754 22.2145 14.875 22.9688 14.875H23.75H24.25V14.375V12.8125V12.3125H23.75H22.9688C22.8942 12.3125 22.8226 12.2829 22.7699 12.2301C22.7171 12.1774 22.6875 12.1058 22.6875 12.0312V11.25ZM8.125 17H7.625V17.5V19.0625V19.5625H8.125H8.90625C8.98084 19.5625 9.05238 19.5921 9.10512 19.6449L9.45868 19.2913L9.10512 19.6449C9.15787 19.6976 9.1875 19.7692 9.1875 19.8438V20.625V21.125H9.6875H11.25H11.75V20.625V19.8438C11.75 19.0895 11.4504 18.3662 10.9171 17.8329C10.3838 17.2996 9.66046 17 8.90625 17H8.125ZM22.1875 21.125H22.6875V20.625V19.8438C22.6875 19.7692 22.7171 19.6976 22.7699 19.6449C22.8226 19.5921 22.8942 19.5625 22.9688 19.5625H23.75H24.25V19.0625V17.5V17H23.75H22.9688C22.2145 17 21.4912 17.2996 20.9579 17.8329C20.4246 18.3662 20.125 19.0895 20.125 19.8438V20.625V21.125H20.625H22.1875ZM7.0625 11.6406C7.0625 10.8386 7.71364 10.1875 8.51562 10.1875H23.3594C24.1614 10.1875 24.8125 10.8386 24.8125 11.6406V20.2344C24.8125 21.0364 24.1614 21.6875 23.3594 21.6875H8.51562C7.71364 21.6875 7.0625 21.0364 7.0625 20.2344V11.6406ZM19.5625 15.9375C19.5625 14.9761 19.1806 14.0541 18.5008 13.3742C17.8209 12.6944 16.8989 12.3125 15.9375 12.3125C14.9761 12.3125 14.0541 12.6944 13.3742 13.3742C12.6944 14.0541 12.3125 14.9761 12.3125 15.9375C12.3125 16.8989 12.6944 17.8209 13.3742 18.5008C14.0541 19.1806 14.9761 19.5625 15.9375 19.5625C16.8989 19.5625 17.8209 19.1806 18.5008 18.5008C19.1806 17.8209 19.5625 16.8989 19.5625 15.9375Z" fill="#56CCF2" stroke="#56CCF2"/>
<path d="M12.0313 24.8125H12.0311C11.6417 24.8126 11.2623 24.6895 10.9472 24.4608C10.8599 24.3974 10.7788 24.3268 10.7045 24.25H23.3594C24.4244 24.25 25.4458 23.8269 26.1989 23.0739C26.9519 22.3208 27.375 21.2994 27.375 20.2344V13.8292C27.4574 13.9088 27.5326 13.9964 27.5995 14.0909C27.8196 14.4024 27.9377 14.7745 27.9375 15.156V15.1562V20.2344C27.9375 20.8356 27.8191 21.4309 27.589 21.9863L28.051 22.1777L27.589 21.9863C27.3589 22.5418 27.0217 23.0465 26.5966 23.4716C26.1715 23.8967 25.6668 24.2339 25.1114 24.464C24.5559 24.6941 23.9606 24.8125 23.3594 24.8125H12.0313ZM12.0313 25.3125C11.5363 25.3127 11.054 25.1562 10.6534 24.8654L12.0313 25.3125Z" fill="#56CCF2" stroke="#56CCF2"/>
</svg>
