<svg width="35" height="44" viewBox="0 0 35 44" fill="none" xmlns="http://www.w3.org/2000/svg">
<circle cx="17.5" cy="17.5" r="17.5" fill="#6FCF97"/>
<path d="M15.3398 44V39.7725H14.4551V41.4893H12.5508V39.7725H11.666V44H12.5508V42.2188H14.4551V44H15.3398ZM16.9277 44V39.7725H16.043V44H16.9277ZM18.5156 44V42.708L18.9111 42.2334L20.165 44H21.2227L19.5498 41.6475L21.1143 39.7725H20.1299L18.542 41.7002H18.5156V39.7725H17.6309V44H18.5156ZM24.3984 43.2676H22.4824V42.2012H24.29V41.5215H22.4824V40.502H24.3984V39.7725H21.5977V44H24.3984V43.2676Z" fill="#104D2A"/>
<path d="M19.9981 11C21.0981 11 21.9981 10.1 21.9981 9C21.9981 7.9 21.0981 7 19.9981 7C18.8981 7 17.9981 7.9 17.9981 9C17.9981 10.1 18.8981 11 19.9981 11ZM23.9981 16.28C22.7681 15.91 21.7781 15.11 21.1981 14.1L20.1981 12.5C19.7881 11.85 19.0881 11.5 18.3581 11.5C17.5781 11.5 16.7681 12 16.5781 12.94C16.3881 13.88 13.4981 28.5 13.4981 28.5H15.5981L17.3981 20.5L19.4981 22.5V28.5H21.4981V21L19.3981 19L19.9981 16C20.9981 17.15 22.4081 18.01 23.9981 18.34V28.5H25.4981V14.5H23.9981V16.28ZM13.9281 18.63L11.8081 18.22C11.5483 18.1694 11.3192 18.0178 11.1711 17.7984C11.0229 17.5791 10.9679 17.3099 11.0181 17.05L11.7781 13.12C11.8798 12.6006 12.1831 12.1427 12.6217 11.8466C13.0603 11.5504 13.5984 11.4402 14.1181 11.54L15.2781 11.77L13.9281 18.63Z" fill="white"/>
</svg>
