<svg width="35" height="44" viewBox="0 0 35 44" fill="none" xmlns="http://www.w3.org/2000/svg">
<circle cx="17.5" cy="17.5" r="16.5" stroke="#6FCF97" stroke-width="2"/>
<path d="M15.3398 44V39.7725H14.4551V41.4893H12.5508V39.7725H11.666V44H12.5508V42.2188H14.4551V44H15.3398ZM16.9277 44V39.7725H16.043V44H16.9277ZM18.5156 44V42.708L18.9111 42.2334L20.165 44H21.2227L19.5498 41.6475L21.1143 39.7725H20.1299L18.542 41.7002H18.5156V39.7725H17.6309V44H18.5156ZM24.3984 43.2676H22.4824V42.2012H24.29V41.5215H22.4824V40.502H24.3984V39.7725H21.5977V44H24.3984V43.2676Z" fill="#104D2A"/>
<path d="M23.8541 16.7588L24.4981 16.9525V16.28V15H24.9981V28H24.4981V18.34V17.9331L24.0997 17.8504C22.6198 17.5433 21.3057 16.7417 20.3754 15.6719L19.7075 14.9038L19.5078 15.9019L18.9078 18.9019L18.8538 19.1721L19.0533 19.3621L20.9981 21.2143V28H19.9981V22.5V22.2857L19.843 22.1379L17.743 20.1379L17.104 19.5294L16.9103 20.3902L15.1981 28H14.1066L14.1132 27.9669L14.4432 26.2979L15.4574 21.1695C16.2038 17.396 16.9735 13.5077 17.0682 13.0391C17.204 12.3675 17.7783 12 18.3581 12C18.9282 12 19.4625 12.2715 19.7748 12.766C19.7749 12.7663 19.7751 12.7665 19.7752 12.7668L20.7693 14.3573C21.4152 15.4769 22.5082 16.354 23.8541 16.7588ZM21.4981 9C21.4981 9.82386 20.822 10.5 19.9981 10.5C19.1743 10.5 18.4981 9.82386 18.4981 9C18.4981 8.17614 19.1743 7.5 19.9981 7.5C20.822 7.5 21.4981 8.17614 21.4981 9ZM14.6911 12.1633L13.5338 18.0445L11.9037 17.7292C11.9035 17.7292 11.9034 17.7292 11.9032 17.7291C11.7736 17.7038 11.6593 17.6281 11.5854 17.5186C11.5115 17.4091 11.484 17.2747 11.509 17.1449C11.509 17.1449 11.509 17.1448 11.5091 17.1448L12.2688 13.216C12.2689 13.2158 12.2689 13.2157 12.2689 13.2155C12.3453 12.8262 12.5727 12.483 12.9015 12.261C13.2301 12.0391 13.6331 11.9564 14.0224 12.0308L14.6911 12.1633Z" fill="#6FCF97" stroke="#6FCF97"/>
</svg>
