<svg width="35" height="45" viewBox="0 0 35 45" fill="none" xmlns="http://www.w3.org/2000/svg">
<circle cx="17.5" cy="17.5" r="17.5" fill="#6FCF97"/>
<path d="M12.041 44V39.7725H11.1562V41.4893H9.25195V39.7725H8.36719V44H9.25195V42.2188H11.1562V44H12.041ZM14.6514 39.6992C13.3975 39.6992 12.6123 40.54 12.6123 41.8877C12.6123 43.2324 13.3975 44.0703 14.6514 44.0703C15.9023 44.0703 16.6904 43.2324 16.6904 41.8877C16.6904 40.54 15.9023 39.6992 14.6514 39.6992ZM14.6514 40.4375C15.3428 40.4375 15.7852 41 15.7852 41.8877C15.7852 42.7725 15.3428 43.332 14.6514 43.332C13.957 43.332 13.5146 42.7725 13.5146 41.8877C13.5146 41 13.96 40.4375 14.6514 40.4375ZM18.1465 42.4531H18.8555L19.6436 44H20.6455L19.7549 42.3213C20.2412 42.1309 20.5225 41.6621 20.5225 41.1201C20.5225 40.2852 19.9658 39.7725 18.9932 39.7725H17.2617V44H18.1465V42.4531ZM18.1465 40.4639H18.8994C19.3389 40.4639 19.6143 40.7275 19.6143 41.1377C19.6143 41.5566 19.3535 41.8115 18.9082 41.8115H18.1465V40.4639ZM20.9443 42.793C20.9707 43.5898 21.6416 44.0703 22.6494 44.0703C23.707 44.0703 24.3545 43.5488 24.3545 42.7227C24.3545 42.0811 23.9648 41.7207 23.0713 41.542L22.623 41.4512C22.125 41.3516 21.9199 41.1904 21.9199 40.9297C21.9199 40.6191 22.2129 40.4141 22.6494 40.4141C23.0947 40.4141 23.4082 40.6309 23.4375 40.9912H24.2725C24.2578 40.2148 23.6367 39.6992 22.6494 39.6992C21.709 39.6992 21.0352 40.2119 21.0352 40.9854C21.0352 41.6152 21.4482 42.0195 22.292 42.1865L22.7373 42.2744C23.2676 42.3828 23.4668 42.541 23.4668 42.8193C23.4668 43.1299 23.1445 43.3584 22.6729 43.3584C22.1924 43.3584 21.835 43.1475 21.7793 42.793H20.9443ZM27.6973 43.2676H25.7812V42.2012H27.5889V41.5215H25.7812V40.502H27.6973V39.7725H24.8965V44H27.6973V43.2676Z" fill="#104D2A"/>
<path d="M16.0063 9.5C16.0063 8.67 16.6763 8 17.5063 8C18.3363 8 19.0063 8.67 19.0063 9.5C19.0063 10.33 18.3363 11 17.5063 11C16.6763 11 16.0063 10.33 16.0063 9.5ZM28.0063 14V17.5L26.9763 17.85C26.892 18.4456 26.5959 18.9908 26.1423 19.3857C25.6886 19.7806 25.1077 19.9987 24.5063 20H24.4263C24.2863 20.68 23.9563 21.29 23.5063 21.78V28H21.0063V23H20.7563C20.5463 23 20.3363 22.97 20.1363 22.94L15.6963 22.2L14.5763 24.21L15.3263 28H12.7863L12.0063 24.25C11.9763 23.95 12.0063 23.65 12.1663 23.39L13.1863 21.58C12.6899 21.3038 12.2739 20.9032 11.9794 20.4175C11.6848 19.9318 11.5217 19.3778 11.5063 18.81C11.4663 18.96 11.4463 19.18 11.4763 19.5C11.5063 19.94 11.6163 20.59 11.5463 21.31C11.5063 22.03 11.1763 22.77 10.7563 23.26C10.3263 23.75 9.85625 24.09 9.35625 24.35L8.65625 23.65C8.84625 23.18 9.03625 22.76 9.07625 22.37C9.13625 22 9.06625 21.7 8.95625 21.43L8.42625 20.3C8.21625 19.79 7.95625 19.05 8.00625 18.18C8.03625 17.33 8.50625 16.22 9.39625 15.61C10.2963 15 11.2663 14.91 12.0563 15.08C12.5563 15.18 13.0663 15.42 13.5063 15.76C13.8763 15.59 14.3063 15.5 14.7563 15.5H15.0063V14.11C15.0063 13.11 15.6863 12.19 16.6663 12.03C16.9534 11.9805 17.2478 11.9943 17.529 12.0704C17.8103 12.1466 18.0714 12.2833 18.2943 12.4709C18.5172 12.6585 18.6964 12.8926 18.8194 13.1567C18.9423 13.4209 19.0061 13.7087 19.0063 14V15.5H20.5063V15C20.5063 12.79 22.2963 11 24.5063 11H28.0063L27.1163 12.34C27.6563 12.7 28.0063 13.31 28.0063 14ZM26.0063 17.2L24.9663 15.54C24.8363 15.33 24.5063 15.42 24.5063 15.67V19C25.3363 19 26.0063 18.33 26.0063 17.5V17.2Z" fill="white"/>
</svg>
