<svg width="35" height="45" viewBox="0 0 35 45" fill="none" xmlns="http://www.w3.org/2000/svg">
<circle cx="17.5" cy="17.5" r="16.5" stroke="#6FCF97" stroke-width="2"/>
<path d="M12.041 44V39.7725H11.1562V41.4893H9.25195V39.7725H8.36719V44H9.25195V42.2188H11.1562V44H12.041ZM14.6514 39.6992C13.3975 39.6992 12.6123 40.54 12.6123 41.8877C12.6123 43.2324 13.3975 44.0703 14.6514 44.0703C15.9023 44.0703 16.6904 43.2324 16.6904 41.8877C16.6904 40.54 15.9023 39.6992 14.6514 39.6992ZM14.6514 40.4375C15.3428 40.4375 15.7852 41 15.7852 41.8877C15.7852 42.7725 15.3428 43.332 14.6514 43.332C13.957 43.332 13.5146 42.7725 13.5146 41.8877C13.5146 41 13.96 40.4375 14.6514 40.4375ZM18.1465 42.4531H18.8555L19.6436 44H20.6455L19.7549 42.3213C20.2412 42.1309 20.5225 41.6621 20.5225 41.1201C20.5225 40.2852 19.9658 39.7725 18.9932 39.7725H17.2617V44H18.1465V42.4531ZM18.1465 40.4639H18.8994C19.3389 40.4639 19.6143 40.7275 19.6143 41.1377C19.6143 41.5566 19.3535 41.8115 18.9082 41.8115H18.1465V40.4639ZM20.9443 42.793C20.9707 43.5898 21.6416 44.0703 22.6494 44.0703C23.707 44.0703 24.3545 43.5488 24.3545 42.7227C24.3545 42.0811 23.9648 41.7207 23.0713 41.542L22.623 41.4512C22.125 41.3516 21.9199 41.1904 21.9199 40.9297C21.9199 40.6191 22.2129 40.4141 22.6494 40.4141C23.0947 40.4141 23.4082 40.6309 23.4375 40.9912H24.2725C24.2578 40.2148 23.6367 39.6992 22.6494 39.6992C21.709 39.6992 21.0352 40.2119 21.0352 40.9854C21.0352 41.6152 21.4482 42.0195 22.292 42.1865L22.7373 42.2744C23.2676 42.3828 23.4668 42.541 23.4668 42.8193C23.4668 43.1299 23.1445 43.3584 22.6729 43.3584C22.1924 43.3584 21.835 43.1475 21.7793 42.793H20.9443ZM27.6973 43.2676H25.7812V42.2012H27.5889V41.5215H25.7812V40.502H27.6973V39.7725H24.8965V44H27.6973V43.2676Z" fill="#104D2A"/>
<path d="M11.0231 18.6812C10.9636 18.9043 10.9451 19.1853 10.9778 19.5403C10.9867 19.6679 10.9998 19.7993 11.0134 19.9354C11.053 20.3323 11.0966 20.7682 11.0486 21.2616L11.0476 21.2719L11.047 21.2823C11.0136 21.883 10.7319 22.519 10.3785 22.9324C10.0859 23.2654 9.77321 23.5206 9.44066 23.7273L9.24511 23.5318C9.38748 23.1827 9.53179 22.8015 9.57208 22.4357C9.64665 21.9568 9.55175 21.5665 9.4193 21.2414L9.41442 21.2294L9.40893 21.2177L8.88409 20.0987C8.68386 19.6108 8.46229 18.9593 8.50543 18.2087L8.50555 18.2087L8.50594 18.1976C8.53127 17.4799 8.93998 16.5296 9.67779 16.0232C10.4513 15.4994 11.2783 15.424 11.9511 15.5688L11.9511 15.5689L11.9582 15.5703C12.3752 15.6537 12.8153 15.858 13.2005 16.1556L13.44 16.3407L13.715 16.2143C14.0135 16.0772 14.3714 16 14.7563 16H15.0063H15.5063V15.5V14.11C15.5063 13.3174 16.0441 12.6382 16.7468 12.5235L16.7468 12.5235L16.7513 12.5227C16.9666 12.4856 17.1874 12.4959 17.3983 12.553C17.6093 12.6102 17.8051 12.7127 17.9723 12.8534C18.1395 12.9941 18.2739 13.1697 18.3661 13.3678C18.4583 13.5658 18.5061 13.7816 18.5063 14C18.5063 14.0001 18.5063 14.0001 18.5063 14.0002V15.5V16H19.0063H20.5063H21.0063V15.5V15C21.0063 13.0661 22.5724 11.5 24.5063 11.5H27.0739L26.6998 12.0634L26.4236 12.4792L26.8389 12.756C27.2452 13.0269 27.5063 13.4836 27.5063 14V17.1418L26.8154 17.3766L26.5242 17.4755L26.5019 17.6335C26.5048 17.5894 26.5063 17.5449 26.5063 17.5V17.2V17.0563L26.43 16.9345L25.3914 15.2768C25.3911 15.2763 25.3908 15.2758 25.3904 15.2753C25.0019 14.6507 24.0063 14.9036 24.0063 15.67V19V19.5H24.0187L23.9365 19.8992C23.816 20.4846 23.531 21.0138 23.138 21.4418L23.0063 21.5852V21.78V27.5H21.5063V23V22.5H21.0063H20.7563C20.5896 22.5 20.4154 22.4762 20.2144 22.4461L15.7785 21.7068L15.431 21.6489L15.2595 21.9566L14.1395 23.9666L14.0501 24.127L14.0858 24.3071L14.7176 27.5H13.193L12.5015 24.1756C12.482 23.9484 12.5135 23.7797 12.5921 23.652L12.5971 23.6439L12.6018 23.6355L13.6218 21.8255L13.8687 21.3875L13.4293 21.1431C13.0088 20.9091 12.6564 20.5697 12.4069 20.1582C12.1573 19.7468 12.0192 19.2774 12.0061 18.7964L11.0231 18.6812ZM16.5063 9.5C16.5063 8.94614 16.9524 8.5 17.5063 8.5C18.0601 8.5 18.5063 8.94614 18.5063 9.5C18.5063 10.0539 18.0601 10.5 17.5063 10.5C16.9524 10.5 16.5063 10.0539 16.5063 9.5Z" fill="#6FCF97" stroke="#6FCF97"/>
</svg>
