<svg width="35" height="45" viewBox="0 0 35 45" fill="none" xmlns="http://www.w3.org/2000/svg">
<circle cx="17.5" cy="17.5" r="17.5" fill="#56CCF2"/>
<path d="M5.59863 39.7725V44H6.4834V42.667H7.27441C8.16504 42.667 8.7832 42.0869 8.7832 41.2197C8.7832 40.3496 8.18555 39.7725 7.31836 39.7725H5.59863ZM6.4834 40.4727H7.08398C7.59082 40.4727 7.88379 40.7422 7.88379 41.2227C7.88379 41.7061 7.58789 41.9756 7.08105 41.9756H6.4834V40.4727ZM11.6777 44H12.6182L11.1475 39.7725H10.1074L8.63965 44H9.54785L9.87012 42.9746H11.3555L11.6777 44ZM10.6025 40.5811H10.623L11.165 42.3125H10.0605L10.6025 40.5811ZM13.9365 42.4531H14.6455L15.4336 44H16.4355L15.5449 42.3213C16.0312 42.1309 16.3125 41.6621 16.3125 41.1201C16.3125 40.2852 15.7559 39.7725 14.7832 39.7725H13.0518V44H13.9365V42.4531ZM13.9365 40.4639H14.6895C15.1289 40.4639 15.4043 40.7275 15.4043 41.1377C15.4043 41.5566 15.1436 41.8115 14.6982 41.8115H13.9365V40.4639ZM17.7803 44V42.708L18.1758 42.2334L19.4297 44H20.4873L18.8145 41.6475L20.3789 39.7725H19.3945L17.8066 41.7002H17.7803V39.7725H16.8955V44H17.7803ZM21.7471 44V39.7725H20.8623V44H21.7471ZM23.2969 44V41.2314H23.3232L25.3008 44H26.0332V39.7725H25.1865V42.5264H25.1631L23.1885 39.7725H22.4502V44H23.2969ZM30.5186 42.2246V41.7471H28.7373V42.3916H29.6572L29.6543 42.459C29.6367 42.9834 29.2354 43.3379 28.6582 43.3379C27.9551 43.3379 27.5098 42.7783 27.5098 41.8613C27.5098 40.9619 27.9287 40.4316 28.626 40.4316C29.1035 40.4316 29.4639 40.6953 29.5928 41.1377H30.4805C30.3545 40.2822 29.6104 39.6992 28.623 39.6992C27.3809 39.6992 26.6074 40.5195 26.6074 41.873C26.6074 43.2471 27.3809 44.0703 28.6436 44.0703C29.8213 44.0703 30.5186 43.376 30.5186 42.2246Z" fill="#1F4E8E"/>
<path d="M18 12H15C14.7348 12 14.4804 12.1054 14.2929 12.2929C14.1054 12.4804 14 12.7348 14 13V21C14 21.2652 14.1054 21.5196 14.2929 21.7071C14.4804 21.8946 14.7348 22 15 22C15.2652 22 15.5196 21.8946 15.7071 21.7071C15.8946 21.5196 16 21.2652 16 21V19H18C18.7957 19 19.5587 18.6839 20.1213 18.1213C20.6839 17.5587 21 16.7956 21 16V15C21 14.2044 20.6839 13.4413 20.1213 12.8787C19.5587 12.3161 18.7957 12 18 12ZM19 16C19 16.2652 18.8946 16.5196 18.7071 16.7071C18.5196 16.8946 18.2652 17 18 17H16V14H18C18.2652 14 18.5196 14.1054 18.7071 14.2929C18.8946 14.4804 19 14.7348 19 15V16ZM17 7C15.0222 7 13.0888 7.58649 11.4443 8.6853C9.79981 9.78412 8.51809 11.3459 7.76121 13.1732C7.00433 15.0004 6.8063 17.0111 7.19215 18.9509C7.578 20.8907 8.53041 22.6725 9.92894 24.0711C11.3275 25.4696 13.1093 26.422 15.0491 26.8079C16.9889 27.1937 18.9996 26.9957 20.8268 26.2388C22.6541 25.4819 24.2159 24.2002 25.3147 22.5557C26.4135 20.9112 27 18.9778 27 17C27 15.6868 26.7413 14.3864 26.2388 13.1732C25.7363 11.9599 24.9997 10.8575 24.0711 9.92893C23.1425 9.00035 22.0401 8.26375 20.8268 7.7612C19.6136 7.25866 18.3132 7 17 7ZM17 25C15.4178 25 13.871 24.5308 12.5554 23.6518C11.2398 22.7727 10.2145 21.5233 9.60897 20.0615C9.00347 18.5997 8.84504 16.9911 9.15372 15.4393C9.4624 13.8874 10.2243 12.462 11.3432 11.3431C12.462 10.2243 13.8874 9.4624 15.4393 9.15372C16.9911 8.84504 18.5997 9.00346 20.0615 9.60896C21.5233 10.2145 22.7727 11.2398 23.6518 12.5554C24.5308 13.871 25 15.4177 25 17C25 19.1217 24.1572 21.1566 22.6569 22.6569C21.1566 24.1571 19.1217 25 17 25Z" fill="white"/>
</svg>
