<svg width="35" height="45" viewBox="0 0 35 45" fill="none" xmlns="http://www.w3.org/2000/svg">
<circle cx="17.5" cy="17.5" r="17.5" fill="#6FCF97"/>
<path d="M12.5459 42.4531H13.2549L14.043 44H15.0449L14.1543 42.3213C14.6406 42.1309 14.9219 41.6621 14.9219 41.1201C14.9219 40.2852 14.3652 39.7725 13.3926 39.7725H11.6611V44H12.5459V42.4531ZM12.5459 40.4639H13.2988C13.7383 40.4639 14.0137 40.7275 14.0137 41.1377C14.0137 41.5566 13.7529 41.8115 13.3076 41.8115H12.5459V40.4639ZM16.3896 39.7725H15.5049V42.5059C15.5049 43.4375 16.1934 44.0703 17.2773 44.0703C18.3584 44.0703 19.0469 43.4375 19.0469 42.5059V39.7725H18.1621V42.418C18.1621 42.96 17.8428 43.3145 17.2773 43.3145C16.709 43.3145 16.3896 42.96 16.3896 42.418V39.7725ZM20.5996 44V41.2314H20.626L22.6035 44H23.3359V39.7725H22.4893V42.5264H22.4658L20.4912 39.7725H19.7529V44H20.5996Z" fill="#104D2A"/>
<path d="M21 12C22.1046 12 23 11.1046 23 10C23 8.89543 22.1046 8 21 8C19.8954 8 19 8.89543 19 10C19 11.1046 19.8954 12 21 12Z" fill="white"/>
<path d="M19.777 16.969C20.0066 17.311 20.3358 17.5742 20.7201 17.7227C21.1044 17.8712 21.5251 17.8978 21.925 17.799L25.241 16.97L24.758 15.03L21.442 15.859L20.063 13.792C19.7684 13.3505 19.3111 13.0435 18.791 12.938L14.945 12.168C14.5147 12.0816 14.068 12.1393 13.6738 12.3322C13.2796 12.525 12.9599 12.8423 12.764 13.235L11.106 16.551L12.895 17.446L14.553 14.129L16.52 14.523L11.434 23H7V25H11.434C12.132 25 12.789 24.628 13.149 24.029L15.067 20.833L20.236 21.867L22.052 27.316L23.948 26.683L22.133 21.235C22.021 20.9005 21.8228 20.6014 21.5584 20.3679C21.294 20.1345 20.9728 19.9748 20.627 19.905L17.588 19.298L19.36 16.344L19.777 16.969Z" fill="white"/>
</svg>
