<svg width="35" height="45" viewBox="0 0 35 45" fill="none" xmlns="http://www.w3.org/2000/svg">
<circle cx="17.5" cy="17.5" r="16.5" stroke="#6FCF97" stroke-width="2"/>
<path d="M13.5176 42.793C13.5439 43.5898 14.2148 44.0703 15.2227 44.0703C16.2803 44.0703 16.9277 43.5488 16.9277 42.7227C16.9277 42.0811 16.5381 41.7207 15.6445 41.542L15.1963 41.4512C14.6982 41.3516 14.4932 41.1904 14.4932 40.9297C14.4932 40.6191 14.7861 40.4141 15.2227 40.4141C15.668 40.4141 15.9814 40.6309 16.0107 40.9912H16.8457C16.8311 40.2148 16.21 39.6992 15.2227 39.6992C14.2822 39.6992 13.6084 40.2119 13.6084 40.9854C13.6084 41.6152 14.0215 42.0195 14.8652 42.1865L15.3105 42.2744C15.8408 42.3828 16.04 42.541 16.04 42.8193C16.04 43.1299 15.7178 43.3584 15.2461 43.3584C14.7656 43.3584 14.4082 43.1475 14.3525 42.793H13.5176ZM18.3545 44V42.708L18.75 42.2334L20.0039 44H21.0615L19.3887 41.6475L20.9531 39.7725H19.9688L18.3809 41.7002H18.3545V39.7725H17.4697V44H18.3545ZM22.3213 44V39.7725H21.4365V44H22.3213Z" fill="#104D2A"/>
<path d="M23.92 20.32C23.67 20.28 22.71 20 22.46 19.89L20.39 26.37L17.3 25.24L19.5 19.47L16.45 16L19 14.54C19.45 15.67 20.17 16.62 21.12 17.4C22.07 18.18 23.16 18.67 24.38 18.86L25.5 15.43L24.06 14.96L23.54 16.56C22.88 16.28 22.3 15.86 21.8 15.32C21.3 14.77 20.94 14.13 20.72 13.41L20.39 12.33C20.27 11.93 20.04 11.61 19.71 11.37C19.38 11.14 19 11 18.63 10.97C18.24 10.94 17.86 11 17.5 11.21L14 13.23C13.63 13.44 13.36 13.74 13.19 14.12C13 14.5 12.96 14.88 13 15.29C13.04 15.7 13.26 16.06 13.54 16.37L17.11 20.08L15.42 24.54L8.47 22.05L8 23.46L22.04 28.58C23.4304 29.0648 24.9324 29.1309 26.36 28.77C26.95 28.61 27.5 28.39 28 28.11L26.87 27C26.12 27.33 25.34 27.5 24.53 27.5C23.87 27.5 23.21 27.39 22.55 27.17L21.8 26.89L23.92 20.32ZM25 10C25 11.11 24.11 12 23 12C21.89 12 21 11.11 21 10C21 8.89 21.9 8 23 8C24.1 8 25 8.9 25 10Z" fill="#6FCF97"/>
</svg>
