<svg width="36" height="45" viewBox="0 0 36 45" fill="none" xmlns="http://www.w3.org/2000/svg">
<circle cx="17.5" cy="17.5" r="17.5" fill="#6FCF97"/>
<path d="M1.52832 42.793C1.55469 43.5898 2.22559 44.0703 3.2334 44.0703C4.29102 44.0703 4.93848 43.5488 4.93848 42.7227C4.93848 42.0811 4.54883 41.7207 3.65527 41.542L3.20703 41.4512C2.70898 41.3516 2.50391 41.1904 2.50391 40.9297C2.50391 40.6191 2.79688 40.4141 3.2334 40.4141C3.67871 40.4141 3.99219 40.6309 4.02148 40.9912H4.85645C4.8418 40.2148 4.2207 39.6992 3.2334 39.6992C2.29297 39.6992 1.61914 40.2119 1.61914 40.9854C1.61914 41.6152 2.03223 42.0195 2.87598 42.1865L3.32129 42.2744C3.85156 42.3828 4.05078 42.541 4.05078 42.8193C4.05078 43.1299 3.72852 43.3584 3.25684 43.3584C2.77637 43.3584 2.41895 43.1475 2.36328 42.793H1.52832ZM6.32715 44V41.2314H6.35352L8.33105 44H9.06348V39.7725H8.2168V42.5264H8.19336L6.21875 39.7725H5.48047V44H6.32715ZM11.6768 39.6992C10.4229 39.6992 9.6377 40.54 9.6377 41.8877C9.6377 43.2324 10.4229 44.0703 11.6768 44.0703C12.9277 44.0703 13.7158 43.2324 13.7158 41.8877C13.7158 40.54 12.9277 39.6992 11.6768 39.6992ZM11.6768 40.4375C12.3682 40.4375 12.8105 41 12.8105 41.8877C12.8105 42.7725 12.3682 43.332 11.6768 43.332C10.9824 43.332 10.54 42.7725 10.54 41.8877C10.54 41 10.9854 40.4375 11.6768 40.4375ZM16.6719 41.1113H16.6982L17.501 44H18.3359L19.458 39.7725H18.541L17.873 42.834H17.8496L17.0586 39.7725H16.3115L15.5205 42.834H15.4971L14.832 39.7725H13.915L15.0342 44H15.8691L16.6719 41.1113ZM19.7275 42.793C19.7539 43.5898 20.4248 44.0703 21.4326 44.0703C22.4902 44.0703 23.1377 43.5488 23.1377 42.7227C23.1377 42.0811 22.748 41.7207 21.8545 41.542L21.4062 41.4512C20.9082 41.3516 20.7031 41.1904 20.7031 40.9297C20.7031 40.6191 20.9961 40.4141 21.4326 40.4141C21.8779 40.4141 22.1914 40.6309 22.2207 40.9912H23.0557C23.041 40.2148 22.4199 39.6992 21.4326 39.6992C20.4922 39.6992 19.8184 40.2119 19.8184 40.9854C19.8184 41.6152 20.2314 42.0195 21.0752 42.1865L21.5205 42.2744C22.0508 42.3828 22.25 42.541 22.25 42.8193C22.25 43.1299 21.9277 43.3584 21.4561 43.3584C20.9756 43.3584 20.6182 43.1475 20.5625 42.793H19.7275ZM27.3535 44V39.7725H26.4688V41.4893H24.5645V39.7725H23.6797V44H24.5645V42.2188H26.4688V44H27.3535ZM29.9639 39.6992C28.71 39.6992 27.9248 40.54 27.9248 41.8877C27.9248 43.2324 28.71 44.0703 29.9639 44.0703C31.2148 44.0703 32.0029 43.2324 32.0029 41.8877C32.0029 40.54 31.2148 39.6992 29.9639 39.6992ZM29.9639 40.4375C30.6553 40.4375 31.0977 41 31.0977 41.8877C31.0977 42.7725 30.6553 43.332 29.9639 43.332C29.2695 43.332 28.8271 42.7725 28.8271 41.8877C28.8271 41 29.2725 40.4375 29.9639 40.4375ZM35.375 43.2676H33.459V42.2012H35.2666V41.5215H33.459V40.502H35.375V39.7725H32.5742V44H35.375V43.2676Z" fill="#104D2A"/>
<path d="M18.5 9C18.5 7.9 19.4 7 20.5 7C21.6 7 22.5 7.9 22.5 9C22.5 10.1 21.6 11 20.5 11C19.4 11 18.5 10.1 18.5 9ZM12.32 24.53L11.18 23.06L10 24L12.38 27.04C12.89 27.69 13.54 28.19 14.26 28.45C14.54 28.55 14.79 28.49 14.98 28.34C15.28 28.11 15.4 27.64 15.1 27.27C15.0148 27.1739 14.9088 27.0987 14.79 27.05C14.3489 26.8689 13.9579 26.5842 13.65 26.22L13.57 26.12L17 23.7L17.89 20.48L20 22.48V27H18V28.5H21.87C22.69 28.5 23.48 28.29 24.13 27.89C24.39 27.73 24.5 27.5 24.5 27.25C24.5 26.87 24.2 26.5 23.73 26.5C23.6 26.5 23.47 26.54 23.36 26.6C22.96 26.83 22.49 26.97 22 27V20.98L19.89 18.98L20.49 15.98C21.79 17.48 23.8 18.5 26 18.5V16.5C24.1 16.5 22.49 15.48 21.69 14.08L20.69 12.5C20.29 11.9 19.69 11.5 18.99 11.5C18.24 11.5 17.58 11.84 13 13.78V18.5H15V15.08L16.79 14.38L15.2 22.5L12.32 24.53Z" fill="white"/>
</svg>
