<svg width="35" height="45" viewBox="0 0 35 45" fill="none" xmlns="http://www.w3.org/2000/svg">
<circle cx="17.5" cy="17.5" r="16.5" stroke="#6FCF97" stroke-width="2"/>
<path d="M9.53711 42.793C9.56348 43.5898 10.2344 44.0703 11.2422 44.0703C12.2998 44.0703 12.9473 43.5488 12.9473 42.7227C12.9473 42.0811 12.5576 41.7207 11.6641 41.542L11.2158 41.4512C10.7178 41.3516 10.5127 41.1904 10.5127 40.9297C10.5127 40.6191 10.8057 40.4141 11.2422 40.4141C11.6875 40.4141 12.001 40.6309 12.0303 40.9912H12.8652C12.8506 40.2148 12.2295 39.6992 11.2422 39.6992C10.3018 39.6992 9.62793 40.2119 9.62793 40.9854C9.62793 41.6152 10.041 42.0195 10.8848 42.1865L11.3301 42.2744C11.8604 42.3828 12.0596 42.541 12.0596 42.8193C12.0596 43.1299 11.7373 43.3584 11.2656 43.3584C10.7852 43.3584 10.4277 43.1475 10.3721 42.793H9.53711ZM15.9736 41.1113H16L16.8027 44H17.6377L18.7598 39.7725H17.8428L17.1748 42.834H17.1514L16.3604 39.7725H15.6133L14.8223 42.834H14.7988L14.1338 39.7725H13.2168L14.3359 44H15.1709L15.9736 41.1113ZM20.1221 44V39.7725H19.2373V44H20.1221ZM25.3018 44V39.7725H24.2764L23.0752 42.8076H23.0518L21.8506 39.7725H20.8252V44H21.6133V41.1465H21.6367L22.7852 44H23.3418L24.4902 41.1465H24.5137V44H25.3018Z" fill="#104D2A"/>
<path d="M24.003 13.9992C25.1087 13.9992 26.005 13.1029 26.005 11.9972C26.005 10.8916 25.1087 9.99524 24.003 9.99524C22.8973 9.99524 22.001 10.8916 22.001 11.9972C22.001 13.1029 22.8973 13.9992 24.003 13.9992Z" fill="#6FCF97"/>
<path d="M23.875 19.2142C23.308 19.6672 22.897 19.9952 21.997 19.9952C21.098 19.9952 20.709 19.6842 20.121 19.2142C19.441 18.6712 18.596 17.9952 16.994 17.9952C15.393 17.9952 14.549 18.6712 13.87 19.2142C13.282 19.6842 12.895 19.9952 11.995 19.9952C11.097 19.9952 10.709 19.6842 10.122 19.2152C9.443 18.6712 8.6 17.9952 7 17.9952V19.9952C7.897 19.9952 8.285 20.3062 8.872 20.7752C9.551 21.3192 10.395 21.9952 11.995 21.9952C13.595 21.9952 14.441 21.3192 15.12 20.7752C15.707 20.3052 16.096 19.9952 16.994 19.9952C17.894 19.9952 18.305 20.3232 18.872 20.7762C19.551 21.3192 20.396 21.9952 21.997 21.9952C23.599 21.9952 24.444 21.3192 25.124 20.7762C25.712 20.3062 26.101 19.9952 27 19.9952V17.9952C25.399 17.9952 24.554 18.6712 23.875 19.2142ZM21.997 24.9952C21.098 24.9952 20.709 24.6842 20.121 24.2142C19.441 23.6712 18.596 22.9952 16.994 22.9952C15.393 22.9952 14.549 23.6712 13.87 24.2142C13.282 24.6842 12.895 24.9952 11.995 24.9952C11.097 24.9952 10.709 24.6842 10.122 24.2152C9.443 23.6712 8.6 22.9952 7 22.9952V24.9952C7.897 24.9952 8.285 25.3062 8.872 25.7752C9.551 26.3192 10.395 26.9952 11.995 26.9952C13.595 26.9952 14.441 26.3192 15.12 25.7752C15.707 25.3052 16.096 24.9952 16.994 24.9952C17.894 24.9952 18.305 25.3232 18.872 25.7762C19.551 26.3192 20.396 26.9952 21.997 26.9952C23.599 26.9952 24.444 26.3192 25.124 25.7762C25.712 25.3062 26.101 24.9952 27 24.9952V22.9952C25.399 22.9952 24.554 23.6712 23.875 24.2142C23.308 24.6672 22.897 24.9952 21.997 24.9952ZM16 11.4142L18.104 13.5182L16.047 16.0882C16.333 16.0322 16.643 15.9952 16.994 15.9952C18.596 15.9952 19.441 16.6712 20.121 17.2142C20.709 17.6842 21.098 17.9952 21.997 17.9952C22.897 17.9952 23.308 17.6672 23.875 17.2142C24.007 17.1092 24.149 16.9972 24.298 16.8882L22.202 14.7982L22.207 14.7932L16.707 9.2932C16.6142 9.20026 16.504 9.12652 16.3827 9.07621C16.2614 9.0259 16.1313 9 16 9C15.8687 9 15.7386 9.0259 15.6173 9.07621C15.496 9.12652 15.3858 9.20026 15.293 9.2932L11.293 13.2932L12.707 14.7072L16 11.4142Z" fill="#6FCF97"/>
</svg>
