<svg width="35" height="44" viewBox="0 0 35 44" fill="none" xmlns="http://www.w3.org/2000/svg">
<circle cx="17.5" cy="17.5" r="17.5" fill="#6FCF97"/>
<path d="M12.001 41.1113H12.0273L12.8301 44H13.665L14.7871 39.7725H13.8701L13.2021 42.834H13.1787L12.3877 39.7725H11.6406L10.8496 42.834H10.8262L10.1611 39.7725H9.24414L10.3633 44H11.1982L12.001 41.1113ZM17.6348 44H18.5752L17.1045 39.7725H16.0645L14.5967 44H15.5049L15.8271 42.9746H17.3125L17.6348 44ZM16.5596 40.5811H16.5801L17.1221 42.3125H16.0176L16.5596 40.5811ZM21.7422 43.2676H19.8936V39.7725H19.0088V44H21.7422V43.2676ZM23.1514 44V42.708L23.5469 42.2334L24.8008 44H25.8584L24.1855 41.6475L25.75 39.7725H24.7656L23.1777 41.7002H23.1514V39.7725H22.2666V44H23.1514Z" fill="#104D2A"/>
<path d="M13.617 14.712L16.822 12.384C17.1818 12.1207 17.6194 11.9855 18.065 12C18.6085 12.0136 19.1343 12.1961 19.5693 12.5223C20.0042 12.8485 20.3268 13.3021 20.492 13.82C20.678 14.403 20.848 14.797 21.002 15.002C21.4673 15.6228 22.0709 16.1266 22.7649 16.4734C23.4589 16.8203 24.2242 17.0005 25 17V19C23.9673 19.0011 22.9472 18.7733 22.0131 18.3329C21.079 17.8925 20.2542 17.2504 19.598 16.453L18.901 20.408L20.962 22.138L23.185 28.246L21.305 28.93L19.265 23.326L15.875 20.481C15.5968 20.2564 15.3839 19.9612 15.2585 19.6264C15.1331 19.2915 15.0998 18.9291 15.162 18.577L15.671 15.692L14.994 16.184L12.867 19.112L11.249 17.936L13.6 14.7L13.617 14.712ZM19.5 11.5C18.9696 11.5 18.4609 11.2893 18.0858 10.9142C17.7107 10.5391 17.5 10.0304 17.5 9.5C17.5 8.96957 17.7107 8.46086 18.0858 8.08579C18.4609 7.71071 18.9696 7.5 19.5 7.5C20.0305 7.5 20.5392 7.71071 20.9142 8.08579C21.2893 8.46086 21.5 8.96957 21.5 9.5C21.5 10.0304 21.2893 10.5391 20.9142 10.9142C20.5392 11.2893 20.0305 11.5 19.5 11.5ZM16.528 24.681L13.314 28.511L11.782 27.226L14.758 23.68L15.504 21.5L17.295 23L16.528 24.681Z" fill="white"/>
</svg>
